<?xml version="1.0" encoding="UTF-8" standalone="no"?>
<!-- Created with Inkscape (http://www.inkscape.org/) -->

<svg
   width="926.74188"
   height="151.02731"
   viewBox="0 0 245.20045 39.959309"
   version="1.1"
   id="svg1"
   inkscape:version="1.4 (86a8ad7, 2024-10-11)"
   sodipodi:docname="pitama-logo.svg"
   inkscape:export-filename="ロゴ的なやつ4.png"
   inkscape:export-xdpi="96"
   inkscape:export-ydpi="96"
   xml:space="preserve"
   xmlns:inkscape="http://www.inkscape.org/namespaces/inkscape"
   xmlns:sodipodi="http://sodipodi.sourceforge.net/DTD/sodipodi-0.dtd"
   xmlns="http://www.w3.org/2000/svg"
   xmlns:svg="http://www.w3.org/2000/svg"><sodipodi:namedview
     id="namedview1"
     pagecolor="#505050"
     bordercolor="#ffffff"
     borderopacity="1"
     inkscape:showpageshadow="0"
     inkscape:pageopacity="0"
     inkscape:pagecheckerboard="1"
     inkscape:deskcolor="#505050"
     inkscape:document-units="mm"
     showgrid="true"
     inkscape:zoom="1.0595392"
     inkscape:cx="406.78061"
     inkscape:cy="58.987907"
     inkscape:window-width="1920"
     inkscape:window-height="1009"
     inkscape:window-x="-8"
     inkscape:window-y="-8"
     inkscape:window-maximized="1"
     inkscape:current-layer="layer1"><inkscape:grid
       id="grid2"
       units="mm"
       originx="-265.93408"
       originy="-368.17566"
       spacingx="0.99999998"
       spacingy="1"
       empcolor="#0099e5"
       empopacity="0.30196078"
       color="#0099e5"
       opacity="0.14901961"
       empspacing="5"
       dotted="false"
       gridanglex="30"
       gridanglez="30"
       visible="true" /></sodipodi:namedview><defs
     id="defs1" /><g
     inkscape:label="Layer 1"
     inkscape:groupmode="layer"
     id="layer1"
     transform="translate(-89.480372,-97.229284)"><path
       style="font-size:11.0001px;line-height:1;font-family:'Monomaniac One';-inkscape-font-specification:'Monomaniac One';text-align:center;letter-spacing:0.529167px;text-orientation:upright;text-anchor:middle;fill:#ffffff;stroke:#000000;stroke-width:1.44921;stroke-linecap:round;stroke-miterlimit:1.5;stroke-dasharray:none;stroke-opacity:1;paint-order:stroke fill markers"
       d="m 149.84016,117.76443 q 0,0.86761 -0.43381,1.59064 -0.40972,0.72301 -1.13273,1.15681 -0.72301,0.43381 -1.61472,0.43381 h -4.43451 q -0.2892,0 -0.2892,0.3133 v 4.96471 q 0,0.45793 -0.33743,0.79533 -0.3133,0.31331 -0.77121,0.31331 h -0.6507 q -0.45791,0 -0.79534,-0.31331 -0.3133,-0.3374 -0.3133,-0.79533 v -14.07469 q 0,-0.48203 0.3133,-0.79533 0.33743,-0.31331 0.79534,-0.31331 h 6.48305 q 0.89171,0 1.61472,0.43381 0.72301,0.4338 1.13273,1.15684 0.43381,0.72301 0.43381,1.61472 z m -2.84386,0 v -3.51869 q 0,-0.33741 -0.3374,-0.33741 h -4.43451 q -0.2892,0 -0.2892,0.31331 v 3.54279 q 0,0.3133 0.2892,0.3133 h 4.43451 q 0.3374,0 0.3374,-0.3133 z m 9.57047,-5.18161 q 0,0.7471 -0.5543,1.30141 -0.53023,0.53021 -1.25324,0.53021 -0.74711,0 -1.30142,-0.53021 -0.53023,-0.55431 -0.53023,-1.30141 0,-0.72304 0.53023,-1.25324 0.55431,-0.55431 1.30142,-0.55431 0.72301,0 1.25324,0.55431 0.5543,0.5302 0.5543,1.25324 z m -0.3856,13.64088 q 0,0.45793 -0.33741,0.79533 -0.31332,0.31331 -0.77123,0.31331 h -0.65071 q -0.4579,0 -0.79531,-0.31331 -0.3133,-0.3374 -0.3133,-0.79533 v -10.00172 q 0,-0.4579 0.3133,-0.77121 0.33741,-0.3374 0.79531,-0.3374 h 0.65071 q 0.45791,0 0.77123,0.3374 0.33741,0.31331 0.33741,0.77121 z m 10.63089,0 q 0,0.45793 -0.31331,0.79533 -0.3133,0.31331 -0.77121,0.31331 h -3.37406 q -1.10864,0 -1.90395,-0.77124 -0.77123,-0.79531 -0.77123,-1.92802 v -12.48407 q 0,-0.48203 0.31332,-0.79533 0.31331,-0.31331 0.77121,-0.31331 h 0.67481 q 0.45791,0 0.77121,0.31331 0.33743,0.3133 0.33743,0.79533 v 2.41005 q 0,0.28921 0.3133,0.28921 h 2.86796 q 0.45791,0 0.77121,0.3374 0.31331,0.3133 0.31331,0.79531 v 0.65071 q 0,0.40973 -0.31331,0.77123 -0.3615,0.3133 -0.77121,0.3133 h -2.86796 q -0.3133,0 -0.3133,0.33741 v 6.12154 q 0,0.31331 0.3133,0.31331 h 2.86796 q 0.45791,0 0.77121,0.3133 0.31331,0.31331 0.31331,0.79531 z m 11.83592,-1.59062 q 0,1.13271 -0.79533,1.92802 -0.77121,0.77124 -1.87983,0.77124 h -3.34998 q -1.10862,0 -1.90395,-0.77124 -0.79531,-0.79531 -0.79531,-1.92802 v -2.62696 q 0,-0.74713 0.36151,-1.32554 0.3856,-0.6025 0.98813,-0.96401 0.60251,-0.3615 1.34962,-0.3615 h 2.84386 q 0.1205,0 0.2169,-0.0964 0.1205,-0.0964 0.1205,-0.24101 v -0.96401 q 0,-0.1446 -0.1205,-0.241 -0.0964,-0.0964 -0.2169,-0.0964 h -2.84386 q -0.45791,0 -0.79531,-0.31331 -0.31331,-0.3133 -0.31331,-0.77123 V 115.981 q 0,-0.482 0.31331,-0.79531 0.3374,-0.3374 0.79531,-0.3374 h 3.34998 q 0.74711,0 1.34962,0.3615 0.60251,0.36151 0.96404,0.98812 0.3615,0.6025 0.3615,1.34963 z m -2.84386,-0.45791 v -1.66294 q 0,-0.1205 -0.1205,-0.2169 -0.0964,-0.0964 -0.2169,-0.0964 h -2.33775 q -0.12051,0 -0.24103,0.0964 -0.0964,0.0964 -0.0964,0.2169 v 1.66294 q 0,0.12051 0.0964,0.21691 0.1205,0.0964 0.24103,0.0964 h 2.33775 q 0.1205,0 0.2169,-0.0964 0.1205,-0.0964 0.1205,-0.21691 z m 18.72866,2.04853 q 0,0.45793 -0.3133,0.79533 -0.31331,0.31331 -0.79531,0.31331 h -0.65071 q -0.45793,0 -0.79533,-0.31331 -0.31331,-0.3374 -0.31331,-0.79533 v -7.25426 q 0,-0.0964 -0.0964,-0.1205 -0.0723,-0.0241 -0.1205,0.0482 l -2.31365,4.77191 q -0.0723,0.1928 -0.31331,0.3374 -0.241,0.1446 -0.4579,0.24102 -0.19281,0.0723 -0.19281,0.0723 -0.74711,0 -0.98811,-0.65073 l -2.31365,-4.77191 q -0.0241,-0.0723 -0.1205,-0.0482 -0.0964,0.0241 -0.0964,0.1205 v 7.25426 q 0,0.45793 -0.33743,0.79533 -0.3133,0.31331 -0.77121,0.31331 h -0.67481 q -0.4579,0 -0.79531,-0.31331 -0.31332,-0.3374 -0.31332,-0.79533 v -14.07468 q 0,-0.48203 0.31332,-0.79533 0.33741,-0.31331 0.79531,-0.31331 h 0.69891 q 0.67481,0 0.98814,0.62661 0.1205,0.2651 0.482,1.03634 0.38561,0.74711 0.89171,1.78342 0.50611,1.03633 1.03634,2.19315 0.55431,1.13274 1.06041,2.16905 0.0482,0.0964 0.1205,0.0964 0.0964,0 0.14461,-0.0964 l 3.44636,-7.18196 q 0.31331,-0.62661 1.01224,-0.62661 h 0.67481 q 0.482,0 0.79531,0.31331 0.31332,0.3133 0.31332,0.79533 z m 11.83593,-1.59062 q 0,1.13271 -0.79534,1.92802 -0.77121,0.77124 -1.87984,0.77124 h -3.34997 q -1.10861,0 -1.90394,-0.77124 -0.79531,-0.79531 -0.79531,-1.92802 v -2.62696 q 0,-0.74713 0.3615,-1.32554 0.3856,-0.6025 0.98813,-0.96401 0.60251,-0.3615 1.34962,-0.3615 h 2.84386 q 0.1205,0 0.2169,-0.0964 0.1205,-0.0964 0.1205,-0.24101 v -0.96401 q 0,-0.1446 -0.1205,-0.241 -0.0964,-0.0964 -0.2169,-0.0964 h -2.84386 q -0.4579,0 -0.79531,-0.31331 -0.3133,-0.3133 -0.3133,-0.77123 V 115.981 q 0,-0.482 0.3133,-0.79531 0.33741,-0.3374 0.79531,-0.3374 h 3.34997 q 0.74713,0 1.34964,0.3615 0.6025,0.36151 0.96401,0.98812 0.36153,0.6025 0.36153,1.34963 z m -2.84389,-0.45791 v -1.66294 q 0,-0.1205 -0.1205,-0.2169 -0.0964,-0.0964 -0.2169,-0.0964 h -2.33773 q -0.1205,0 -0.24102,0.0964 -0.0964,0.0964 -0.0964,0.2169 v 1.66294 q 0,0.12051 0.0964,0.21691 0.1205,0.0964 0.24102,0.0964 h 2.33773 q 0.1205,0 0.2169,-0.0964 0.1205,-0.0964 0.1205,-0.21691 z m 9.5946,-11.59235 q 0,0.7471 -0.55433,1.30141 -0.5302,0.53021 -1.25321,0.53021 -0.74711,0 -1.30144,-0.53021 -0.53021,-0.55431 -0.53021,-1.30141 0,-0.72304 0.53021,-1.25324 0.55433,-0.55431 1.30144,-0.55431 0.72301,0 1.25321,0.55431 0.55433,0.5302 0.55433,1.25324 z m -0.3856,13.64088 q 0,0.45793 -0.33743,0.79533 -0.3133,0.31331 -0.77121,0.31331 h -0.65071 q -0.4579,0 -0.79533,-0.31331 -0.3133,-0.3374 -0.3133,-0.79533 v -10.00172 q 0,-0.4579 0.3133,-0.77121 0.33743,-0.3374 0.79533,-0.3374 h 0.65071 q 0.45791,0 0.77121,0.3374 0.33743,0.31331 0.33743,0.77121 z m 20.92434,-13.42398 q 0,0.4579 -0.3133,0.79531 -0.3133,0.3133 -0.79531,0.3133 H 230.019 q -0.31331,0 -0.31331,0.31331 v 12.00206 q 0,0.45793 -0.33742,0.79533 -0.31331,0.31331 -0.77121,0.31331 h -0.62661 q -0.45791,0 -0.79533,-0.31331 -0.31331,-0.3374 -0.31331,-0.79533 v -12.00206 q 0,-0.31331 -0.3133,-0.31331 h -2.55466 q -0.4579,0 -0.79531,-0.3133 -0.3133,-0.33741 -0.3133,-0.79531 v -0.65071 q 0,-0.48203 0.3133,-0.79533 0.33741,-0.31331 0.79531,-0.31331 h 8.5557 q 0.48201,0 0.79531,0.31331 0.3133,0.3133 0.3133,0.79533 z m 10.60684,7.37476 q 0,0.72301 -0.36151,1.34962 -0.3615,0.60253 -0.96403,0.98813 -0.60251,0.36151 -1.34962,0.36151 h -2.84386 q -0.1205,0 -0.241,0.0964 -0.0964,0.0723 -0.0964,0.1928 v 1.01223 q 0,0.12051 0.0964,0.21691 0.1205,0.0964 0.241,0.0964 h 2.84386 q 0.45791,0 0.77121,0.3133 0.3374,0.31331 0.3374,0.79531 v 0.62661 q 0,0.45793 -0.3374,0.79533 -0.3133,0.31331 -0.77121,0.31331 h -3.34999 q -1.10861,0 -1.90392,-0.77124 -0.79533,-0.79531 -0.79533,-1.92802 v -7.08556 q 0,-0.74713 0.3615,-1.34964 0.38563,-0.6025 0.98814,-0.96401 0.6025,-0.3856 1.34961,-0.3856 h 3.34999 q 0.74711,0 1.34962,0.3856 0.60253,0.36151 0.96403,0.96401 0.36151,0.60251 0.36151,1.34964 z m -2.84386,-0.48201 v -1.63884 q 0,-0.1446 -0.1205,-0.241 -0.0964,-0.0964 -0.21691,-0.0964 h -2.33775 q -0.1205,0 -0.241,0.0964 -0.0964,0.0964 -0.0964,0.241 v 1.63884 q 0,0.0964 0.0964,0.1928 0.1205,0.0964 0.241,0.0964 h 2.33775 q 0.1205,0 0.21691,-0.0964 0.1205,-0.0964 0.1205,-0.1928 z m 14.67978,4.94061 q 0,1.13271 -0.79533,1.92802 -0.77121,0.77124 -1.87983,0.77124 h -3.34998 q -1.10862,0 -1.90395,-0.77124 -0.79531,-0.79531 -0.79531,-1.92802 v -7.08556 q 0,-0.74713 0.36151,-1.34964 0.3856,-0.6266 0.98813,-0.98811 0.60251,-0.3615 1.34962,-0.3615 h 3.34998 q 0.74711,0 1.34962,0.3615 0.60251,0.36151 0.96404,0.98811 0.3615,0.60251 0.3615,1.34964 v 1.25322 q 0,0.4579 -0.3133,0.79533 -0.31333,0.31331 -0.77123,0.31331 h -0.67481 q -0.45791,0 -0.77121,-0.31331 -0.31331,-0.33743 -0.31331,-0.79533 v -0.74711 q 0,-0.1446 -0.1205,-0.241 -0.0964,-0.0964 -0.2169,-0.0964 h -2.33775 q -0.12051,0 -0.24101,0.0964 -0.0964,0.0964 -0.0964,0.241 v 6.12154 q 0,0.12051 0.0964,0.21691 0.1205,0.0964 0.24101,0.0964 h 2.33775 q 0.1205,0 0.2169,-0.0964 0.1205,-0.0964 0.1205,-0.21691 v -0.74713 q 0,-0.4579 0.31331,-0.77121 0.3133,-0.3374 0.77121,-0.3374 h 0.67481 q 0.4579,0 0.77123,0.3374 0.3133,0.31331 0.3133,0.77121 z m 11.83593,1.59062 q 0,0.45793 -0.31331,0.79533 -0.3133,0.31331 -0.77123,0.31331 h -0.67481 q -0.4579,0 -0.77121,-0.31331 -0.3133,-0.3374 -0.3133,-0.79533 v -8.17007 q 0,-0.1446 -0.1205,-0.241 -0.0964,-0.0964 -0.21691,-0.0964 h -2.33775 q -0.1205,0 -0.24102,0.0964 -0.0964,0.0964 -0.0964,0.241 v 8.17007 q 0,0.45793 -0.31331,0.79533 -0.3133,0.31331 -0.77121,0.31331 h -0.67481 q -0.4579,0 -0.79533,-0.31331 -0.3133,-0.3374 -0.3133,-0.79533 v -14.07469 q 0,-0.48203 0.3133,-0.79533 0.33743,-0.31331 0.79533,-0.31331 h 0.67481 q 0.45791,0 0.77121,0.31331 0.31331,0.3133 0.31331,0.79533 v 2.41005 q 0,0.1205 0.0964,0.21691 0.1205,0.0723 0.24102,0.0723 h 2.84386 q 0.74711,0 1.34962,0.3615 0.60253,0.36151 0.96403,0.98811 0.36151,0.60251 0.36151,1.34964 z m 11.83592,0 q 0,0.45793 -0.3133,0.79533 -0.31333,0.31331 -0.77123,0.31331 h -0.67481 q -0.45791,0 -0.77121,-0.31331 -0.31333,-0.3374 -0.31333,-0.79533 v -8.17007 q 0,-0.1446 -0.1205,-0.241 -0.0964,-0.0964 -0.2169,-0.0964 h -2.33776 q -0.1205,0 -0.241,0.0964 -0.0964,0.0964 -0.0964,0.241 v 8.17007 q 0,0.45793 -0.3133,0.79533 -0.31331,0.31331 -0.77121,0.31331 h -0.67481 q -0.45793,0 -0.79533,-0.31331 -0.31331,-0.3374 -0.31331,-0.79533 v -8.67618 q 0,-0.74713 0.36151,-1.34964 0.3856,-0.6266 0.98813,-0.98811 0.60251,-0.3615 1.34962,-0.3615 h 3.34998 q 0.74711,0 1.34962,0.3615 0.60251,0.36151 0.96404,0.98811 0.3615,0.60251 0.3615,1.34964 z m 11.83593,-1.59062 q 0,1.13271 -0.79531,1.92802 -0.77124,0.77124 -1.87985,0.77124 h -3.34999 q -1.10861,0 -1.90392,-0.77124 -0.79533,-0.79531 -0.79533,-1.92802 v -7.08556 q 0,-0.74713 0.3615,-1.34964 0.38563,-0.6266 0.98814,-0.98811 0.6025,-0.3615 1.34961,-0.3615 h 3.34999 q 0.74711,0 1.34962,0.3615 0.60253,0.36151 0.96403,0.98811 0.36151,0.60251 0.36151,1.34964 z m -2.84386,-0.45791 v -6.12154 q 0,-0.1446 -0.1205,-0.241 -0.0964,-0.0964 -0.21691,-0.0964 h -2.33775 q -0.1205,0 -0.24102,0.0964 -0.0964,0.0964 -0.0964,0.241 v 6.12154 q 0,0.12051 0.0964,0.21691 0.1205,0.0964 0.24102,0.0964 h 2.33775 q 0.1205,0 0.21691,-0.0964 0.1205,-0.0964 0.1205,-0.21691 z m 10.34168,2.04853 q 0,0.45793 -0.3374,0.79533 -0.31331,0.31331 -0.77121,0.31331 h -0.60253 q -1.10862,0 -1.90393,-0.77124 -0.79533,-0.79531 -0.79533,-1.92802 v -12.48407 q 0,-0.48203 0.31331,-0.79533 0.33742,-0.31331 0.79533,-0.31331 h 0.67481 q 0.4579,0 0.77121,0.31331 0.33742,0.3133 0.33742,0.79533 v 12.02616 q 0,0.31331 0.28921,0.31331 h 0.1205 q 0.4579,0 0.77121,0.3133 0.3374,0.31331 0.3374,0.79531 z m 11.78768,-1.59062 q 0,1.13271 -0.79531,1.92802 -0.77121,0.77124 -1.87984,0.77124 h -3.34997 q -1.10864,0 -1.90395,-0.77124 -0.79531,-0.79531 -0.79531,-1.92802 v -7.08556 q 0,-0.74713 0.36151,-1.34964 0.3856,-0.6266 0.98811,-0.98811 0.60253,-0.3615 1.34964,-0.3615 h 3.34997 q 0.74713,0 1.34963,0.3615 0.60251,0.36151 0.96402,0.98811 0.3615,0.60251 0.3615,1.34964 z m -2.84386,-0.45791 v -6.12154 q 0,-0.1446 -0.1205,-0.241 -0.0964,-0.0964 -0.2169,-0.0964 h -2.33775 q -0.1205,0 -0.24101,0.0964 -0.0964,0.0964 -0.0964,0.241 v 6.12154 q 0,0.12051 0.0964,0.21691 0.12051,0.0964 0.24101,0.0964 h 2.33775 q 0.1205,0 0.2169,-0.0964 0.1205,-0.0964 0.1205,-0.21691 z m 14.67981,4.31398 q 0,0.72303 -0.36153,1.32554 -0.3615,0.62661 -0.96401,0.98811 -0.60251,0.38561 -1.34962,0.38561 h -3.34998 q -0.45791,0 -0.79531,-0.33741 -0.31331,-0.3133 -0.31331,-0.77121 v -0.67481 q 0,-0.45792 0.31331,-0.77123 0.3374,-0.3133 0.79531,-0.3133 h 2.84385 q 0.12051,0 0.21691,-0.0964 0.1205,-0.0964 0.1205,-0.21691 v -0.3615 q 0,-0.1205 -0.1205,-0.2169 -0.0964,-0.0964 -0.21691,-0.0964 h -2.84385 q -1.10862,0 -1.90395,-0.77124 -0.79531,-0.79531 -0.79531,-1.92802 v -7.08556 q 0,-0.74713 0.3615,-1.34964 0.38561,-0.6266 0.98814,-0.98811 0.60251,-0.3615 1.34962,-0.3615 h 3.34998 q 0.74711,0 1.34962,0.3615 0.60251,0.36151 0.96401,0.98811 0.36153,0.60251 0.36153,1.34964 z m -2.84388,-4.31398 v -6.12154 q 0,-0.1446 -0.1205,-0.241 -0.0964,-0.0964 -0.21691,-0.0964 h -2.33775 q -0.1205,0 -0.241,0.0964 -0.0964,0.0964 -0.0964,0.241 v 6.12154 q 0,0.12051 0.0964,0.21691 0.1205,0.0964 0.241,0.0964 h 2.33775 q 0.12051,0 0.21691,-0.0964 0.1205,-0.0964 0.1205,-0.21691 z m 14.0291,-7.92909 -3.30179,12.67688 q -0.2651,0.98813 -1.08451,1.61474 -0.81944,0.65071 -1.87985,0.65071 h -0.67481 q -0.45793,0 -0.79533,-0.33741 -0.31331,-0.3133 -0.31331,-0.77121 v -0.67481 q 0,-0.45792 0.31331,-0.77123 0.3374,-0.3133 0.79533,-0.3133 h 0.67481 q 0.1446,0 0.1928,-0.1446 l 0.53021,-2.07265 q 0.0723,-0.1928 0,-0.40971 l -2.45825,-9.44741 q -0.19281,-0.5543 0.1928,-0.93991 0.3133,-0.4579 0.84353,-0.4579 h 0.69891 q 0.3856,0 0.67481,0.241 0.2892,0.2169 0.3856,0.60251 l 1.08454,4.12119 q 0.0241,0.0964 0.1205,0.0964 0.0964,0 0.1205,-0.0964 l 1.08452,-4.12119 q 0.1205,-0.38561 0.38562,-0.60251 0.28921,-0.241 0.65071,-0.241 h 0.69891 q 0.55431,0 0.86761,0.4579 0.36153,0.38561 0.1928,0.93991 z"
       id="text1"
       aria-label="PitaMai Technology" /><g
       inkscape:label="Layer 1"
       id="layer1-8"><path
         id="path1-2"
         style="fill:#4d663e;stroke:#101010;stroke-width:0.507116;stroke-linecap:round;stroke-linejoin:round;stroke-miterlimit:1.5;paint-order:stroke fill markers"
         inkscape:transform-center-x="-3.0301989"
         transform="matrix(0.84188967,-0.50000001,0.48606522,0.86602541,-29.145858,76.34621)"
         d="M 97.199407,113.61179 H 75.603709 L 86.401558,94.909366 Z" /><path
         id="path1-6-4"
         style="fill:#b8fb97;stroke:#101010;stroke-width:0.5;stroke-linecap:round;stroke-linejoin:round;stroke-miterlimit:1.5;paint-order:stroke fill markers"
         inkscape:transform-center-x="1.6135173"
         inkscape:transform-center-y="1.6135058"
         transform="rotate(45,94.888447,129.84336)"
         d="M 97.199407,113.61179 H 75.603709 L 86.401558,94.909366 Z" /><path
         id="path1-8-5"
         style="fill:#b8fb97;stroke:#101010;stroke-width:0.489886;stroke-linecap:square;stroke-linejoin:round;stroke-miterlimit:1.5;paint-order:stroke fill markers"
         inkscape:transform-center-x="1.680829"
         inkscape:transform-center-y="-1.6135139"
         transform="matrix(1.0062229,0.25881905,-0.26961661,0.96592583,62.738639,-3.1848348)"
         d="M 97.199407,113.61179 H 75.603709 L 86.401558,94.909366 Z" /><path
         id="path2-5"
         style="fill:#b7fa96;stroke:#101010;stroke-width:0.5;stroke-linecap:round;stroke-linejoin:round;stroke-miterlimit:1.5;paint-order:stroke fill markers"
         d="m 120,106.41261 a 2.2856412,1.412604 0 0 1 -2.28564,1.41261 2.2856412,1.412604 0 0 1 -2.28564,-1.41261 2.2856412,1.412604 0 0 1 2.28564,-1.4126 2.2856412,1.412604 0 0 1 2.28564,1.4126 z" /><path
         id="path2-6-1"
         style="fill:#b8fb97;stroke:#101010;stroke-width:0.5;stroke-linecap:round;stroke-linejoin:round;stroke-miterlimit:1.5;paint-order:stroke fill markers"
         d="m 130,100 a 4.9999967,2.520716 0 0 1 -4.99999,2.52072 4.9999967,2.520716 0 0 1 -5,-2.52072 4.9999967,2.520716 0 0 1 5,-2.520716 A 4.9999967,2.520716 0 0 1 130,100 Z" /></g></g></svg>
